<?xml version="1.0" standalone="no"?><!DOCTYPE svg PUBLIC "-//W3C//DTD SVG 1.1//EN" "http://www.w3.org/Graphics/SVG/1.1/DTD/svg11.dtd"><svg t="1503308875964" class="icon" style="" viewBox="0 0 1024 1024" version="1.1" xmlns="http://www.w3.org/2000/svg" p-id="8142" id="mx_n_1503308875965" xmlns:xlink="http://www.w3.org/1999/xlink" width="128" height="128"><defs><style type="text/css"></style></defs><path d="M1024 512" p-id="8143" fill="#ffffff"></path><path d="M512 1024" p-id="8144" fill="#ffffff"></path><path d="M531.136 430.848c-48.448 0-89.728 17.088-123.84 51.2s-51.2 75.392-51.2 123.84c0 48.384 17.088 89.6 51.2 123.776s75.392 51.264 123.84 51.264c48.384 0 89.664-17.152 123.84-51.264s51.2-75.392 51.2-123.776c0-48.384-17.088-89.664-51.2-123.84S579.52 430.848 531.136 430.848zM512 0C229.248 0 0 229.248 0 512c0 282.688 229.248 512 512 512 282.752 0 512-229.248 512-512C1024 229.248 794.752 0 512 0zM704.384 779.136c-47.872 47.872-105.6 71.744-173.248 71.744-67.712 0-125.44-23.872-173.248-71.744-47.872-47.872-71.744-105.6-71.744-173.248L286.144 185.024c0-9.6 3.392-17.856 10.24-24.704 6.848-6.848 15.104-10.304 24.704-10.304s17.856 3.456 24.768 10.304c6.848 6.848 10.24 15.104 10.24 24.704l0 249.344C356.672 433.792 357.312 433.216 357.888 432.64c47.808-47.872 105.536-71.744 173.248-71.744 67.648 0 125.376 23.936 173.248 71.744 47.808 47.872 71.744 105.6 71.744 173.248C776.128 673.472 752.192 731.264 704.384 779.136z" p-id="8145" fill="#ffffff"></path></svg>